<?xml version="1.0" encoding="utf-8"?>
<!-- Generator: Adobe Illustrator 24.1.0, SVG Export Plug-In . SVG Version: 6.00 Build 0)  -->
<svg version="1.1" id="Layer_1" xmlns="http://www.w3.org/2000/svg" xmlns:xlink="http://www.w3.org/1999/xlink" x="0px" y="0px"
	 viewBox="0 0 906.3 263" style="enable-background:new 0 0 906.3 263;" xml:space="preserve">
<style type="text/css">
	.st0{fill:#FFFFFF;}
</style>
<g id="Layer_2_1_">
	<g id="Layer_1-2">
		<path class="st0" d="M359.5,79.1v-8.7h37.2c2,0.1,3.9-0.5,5.4-1.8c1.3-1.2,1.9-2.9,1.9-4.7c0.1-1.8-0.6-3.6-1.9-4.8
			c-1.5-1.2-3.4-1.7-5.4-1.6H374c-2.2,0-4.3-0.3-6.3-1.1c-1.8-0.6-3.4-1.6-4.8-2.9c-1.3-1.3-2.3-2.8-3-4.5c-0.7-1.8-1.1-3.7-1.1-5.7
			c0-1.9,0.3-3.8,1-5.6c0.6-1.7,1.6-3.2,2.9-4.4c1.4-1.3,3-2.3,4.8-2.9c2.1-0.7,4.3-1.1,6.5-1.1h35.7V38H374
			c-1.7-0.1-3.4,0.5-4.6,1.6c-1.1,1.2-1.7,2.8-1.6,4.5c-0.1,1.7,0.5,3.3,1.7,4.4c1.2,1.1,2.9,1.7,4.5,1.6h22.7
			c5.1,0,8.9,1.2,11.5,3.5s3.9,6,3.9,10.8c0,2-0.3,3.9-1,5.8c-0.6,1.7-1.6,3.3-2.9,4.6c-1.4,1.3-3,2.4-4.8,3
			c-2.2,0.8-4.5,1.1-6.8,1.1L359.5,79.1z"/>
		<path class="st0" d="M416.3,29.4h10.6l22.5,38.3l22.5-38.3h10L453.3,77c-0.5,0.8-1.1,1.5-1.8,2c-0.7,0.5-1.5,0.8-2.4,0.8
			s-1.7-0.2-2.5-0.8c-0.7-0.5-1.3-1.2-1.8-2L416.3,29.4z"/>
		<path class="st0" d="M487.2,79.1V29.4h8.7v41h33.4v8.7H487.2z"/>
		<rect x="308.9" y="29.5" class="st0" width="4.9" height="206"/>
		<path class="st0" d="M167.4,5L74.9,43L17.1,66.7c-2.3,4-4.4,8.1-6.2,12.4C8.8,83.8,7,88.7,5.5,93.8L65.8,69
			c1.1-4.8,2.5-9.5,4.2-14.2L180.5,9.5C176.2,7.7,171.8,6.2,167.4,5z"/>
		<path class="st0" d="M131.5,0c-9.2,0-18.3,1-27.3,2.8c-2.7,0.6-5.3,1.2-7.9,2c-10.1,2.8-19.7,6.7-28.9,11.8
			C57,22.5,47.3,29.8,38.8,38.2c-6.4,6.3-12,13.3-17,20.8l56.8-23.3c3.7-6.7,8-13,12.8-19L131.9,0H131.5z"/>
		<path class="st0" d="M262.9,134.4l-155.4,63.8L40,225.9c2.4,2.4,4.9,4.6,7.5,6.8c3.5,2.9,7,5.6,10.8,8.1l69-28.3
			c-4-2.4-7.9-4.9-11.7-7.7l146.8-60.2C262.6,141.1,262.8,137.7,262.9,134.4z"/>
		<path class="st0" d="M258.9,164.1l-125.7,51.6l-69.4,28.5c3.3,2,6.8,3.9,10.3,5.6c4.9,2.4,10,4.5,15.3,6.2l72.1-29.6
			c-5.8-1.5-11.4-3.3-16.9-5.5l111-45.6C256.8,171.7,257.9,167.9,258.9,164.1z"/>
		<path class="st0" d="M245,197.9l-74.3,30.5l-73.3,30.1c11.1,3,22.6,4.5,34.1,4.5c33.3,0,65.3-12.6,89.6-35.3
			c-9,1.9-18.1,2.8-27.3,2.8c-1.4,0-2.7-0.1-4.1-0.1l46-18.9C239.1,207.2,242.2,202.7,245,197.9z"/>
		<path class="st0" d="M180.5,34.5c2.1,0,4.3,0.2,6.4,0.4l22.6-9.3c-2.9-2.2-6-4.2-9.1-6.1L64.5,75.3L3.8,100.2
			c-0.8,3.5-1.6,7.1-2.2,10.7c-0.6,4.3-1.1,8.6-1.4,13l62.1-25.5c0-4.3,0.2-8.6,0.6-12.8l77.2-31.7
			C149.9,41.7,164.8,34.5,180.5,34.5z"/>
		<path class="st0" d="M130.1,76.5l-67.6,27.8L0.1,129.9c0,0.5,0,1.1,0,1.6c0,2.8,0.1,5.4,0.3,8.1c0.3,4,0.6,8,1.3,12L65,125.5
			c-0.8-3.8-1.4-7.8-1.8-11.8l66.1-27.1c0-0.3,0-0.6,0-0.9C129.2,82.7,129.5,79.5,130.1,76.5z"/>
		<path class="st0" d="M217.6,50.4l13-5.3c-2.1-2.4-4.3-4.8-6.6-7.1l-14.1,5.8C212.6,45.7,215.2,48,217.6,50.4z"/>
		<path class="st0" d="M66.2,130.8L2.5,157c0.6,3,1.3,6,2.1,9c1,3.8,2.2,7.4,3.5,11.1l64.7-26.6c-1.5-3.5-2.8-7.2-4-10.8l67.7-27.8
			c-1.6-2.6-2.9-5.4-3.9-8.2L66.2,130.8z"/>
		<path class="st0" d="M246,66.9c-1.5-2.7-3.1-5.3-4.8-7.9l-14,5.8c1.3,2.8,2.3,5.7,3,8.6L246,66.9z"/>
		<path class="st0" d="M256.5,90.7c-1-2.9-2-5.8-3.1-8.6l-21.9,9c-0.4,3.7-1.2,7.3-2.4,10.8L256.5,90.7z"/>
		<path class="st0" d="M75,155.3L10.1,182c1.2,2.8,2.4,5.6,3.8,8.3c1.7,3.5,3.6,6.9,5.6,10.2l65.9-27c-2.2-3.2-4.3-6.5-6.2-9.9
			l78-32c-3.3-1.7-6.4-3.7-9.2-6L75,155.3z"/>
		<path class="st0" d="M262.1,116.4c-0.4-3.1-0.8-6.2-1.4-9.3l-51.9,21.3c-5.6,3.7-11.9,6.3-18.5,7.6L88.6,177.8L22.4,205
			c1.8,2.6,3.6,5.1,5.6,7.5c2.5,3.2,5.2,6.3,7.9,9.2l67.2-27.6c-3-2.9-5.9-5.9-8.6-9L262.1,116.4z"/>
		<path class="st0" d="M217,106.9l12.1-5c1.2-3.5,2-7.1,2.4-10.8l-10.9,4.5C219.9,99.5,218.7,103.3,217,106.9z"/>
		<path class="st0" d="M180.5,44.1c-18.6,0-34.9,12.4-40,30.2L201.9,50C195.4,46.2,188,44.1,180.5,44.1z M207.7,54.3l-68.6,27.2
			c-0.1,1.4-0.2,2.9-0.2,4.3c0,5,0.9,10,2.7,14.7L219,69.9C216.5,63.9,212.6,58.6,207.7,54.3z M220.8,75.7L144.1,106
			c3.7,6.5,9,12,15.5,15.7l60.7-24C222.5,90.6,222.7,83,220.8,75.7L220.8,75.7z M180.5,127.4c15.3,0,29.3-8.4,36.6-21.8l-49.7,19.7
			C171.6,126.7,176,127.4,180.5,127.4z"/>
		<path class="st0" d="M397.3,135.4c-28.6,28.2-9.3,78.7,35,78.7c17.5,0,30.7-7.4,35.6-23.1h-36c-13.6,0-20.6-12.2-19.6-24.1h84.4
			c4.3,47-32.6,72.5-67.6,72.1c-23.9-0.4-48.2-12-61.4-35.4c-15.4-27-11.7-58.5,5.6-80.3c12.4-15.7,32.3-26.4,57.3-26.4
			c37.1,0,71.9,22.9,48.4,51.3C471.3,124.1,422.8,110.3,397.3,135.4z"/>
		<path class="st0" d="M530.2,235.6h-24.5V119.4c0-12.4,9.5-20,24.5-19.8V235.6z"/>
		<path class="st0" d="M660.4,235.6v-116c0-10.5,9.3-19.6,24.5-20V178c0,17.7,5.8,37.7,26,37.7c35.8,0,35-57.9-0.2-57.9
			c-7,0-16.1,1.8-20.4,8c-4.5-8.2-1.9-29.7,23.7-30.7c24.9-0.8,48,21,48,51.5c0,47.4-48.4,66.9-77.2,38.5v10.7L660.4,235.6
			L660.4,235.6z"/>
		<path class="st0" d="M845.8,224.6c-29.3,29.1-78.9,9.3-78.9-39.4c0-31.3,23.7-53.7,49.2-52.7c24.9,1,29,23.1,24.3,31.5
			c-4.3-6.4-13.6-8.2-21-8.2c-36,0-36.7,59.3,0,59.3c20.6,0,26.4-20.6,26.4-38.7V135h25.3v100.6h-25.3V224.6z"/>
		<path class="st0" d="M906.3,235.6h-24.5V119.4c0-12.4,9.5-20,24.5-19.8V235.6z"/>
		<path class="st0" d="M595.7,124.1c17.3,0,32.5,7.7,43.6,21.1c-12.1-7.3-29.4-4.8-37.5,5c-19.4-4-35.9,9-35.9,30.5
			c0,41.7,58.8,42.1,59,0.4c-0.2-16.3-17.1-21.7-25.7-15.6c2.5-23.6,43-25.5,50.5-1c5.9,20.1,0.4,41.7-14.4,56.5
			c-26.5,26.5-71.1,20-89.3-11.9C524.1,170.8,551.8,124.1,595.7,124.1z"/>
	</g>
</g>
</svg>
